<svg width="80" height="80" viewBox="0 0 80 80" fill="none" xmlns="http://www.w3.org/2000/svg">
<path d="M78.4927 36.4362L43.5633 1.5087C41.553 -0.5029 38.2904 -0.5029 36.2775 1.5087L29.0243 8.76196L38.2254 17.9631C40.3636 17.2406 42.8155 17.7253 44.5199 19.4297C46.2324 21.145 46.7137 23.6179 45.9737 25.7629L54.841 34.6306C56.9864 33.8915 59.4617 34.3696 61.1752 36.0859C63.5699 38.4797 63.5699 42.3595 61.1752 44.7548C58.7798 47.1505 54.9001 47.1505 52.5035 44.7548C50.7022 42.9517 50.2572 40.3063 51.1691 38.0872L42.8995 29.8177L42.8986 51.5796C43.4981 51.876 44.0456 52.2676 44.5199 52.739C46.9146 55.1328 46.9146 59.0129 44.5199 61.4101C42.1245 63.8045 38.2429 63.8045 35.851 61.4101C33.4562 59.0129 33.4562 55.1331 35.851 52.7393C36.4249 52.1652 37.1069 51.7105 37.8576 51.4015V29.4367C37.1058 29.1298 36.4234 28.6749 35.851 28.0989C34.0366 26.287 33.6003 23.6247 34.53 21.3969L25.4598 12.3258L1.5094 36.2747C-0.503134 38.2881 -0.503134 41.551 1.5094 43.5629L36.4394 78.4911C38.4504 80.503 41.7123 80.503 43.7258 78.4911L78.4924 43.7251C80.5043 41.7126 80.5046 38.4478 78.4927 36.4362Z" fill="#DE4C36"/>
</svg>
