<svg width="79" height="79" viewBox="0 0 79 79" fill="none" xmlns="http://www.w3.org/2000/svg">
<path d="M0.25 0.625V78.75H78.375V0.625H0.25ZM41.5744 67.1956C40.4213 69.5388 38.22 71.0781 35.6694 71.8213C31.75 72.7213 28.0012 72.2081 25.2125 70.5344C23.3462 69.3894 21.8888 67.6269 20.8994 65.5963L26.8494 61.9525C26.9012 61.9744 27.0575 62.2569 27.2663 62.6219C28.025 63.8931 28.6794 64.7931 29.9656 65.425C31.2294 65.8563 34.0038 66.1319 35.075 63.9081C35.7294 62.7769 35.5212 59.1406 35.5212 55.1175C35.5206 48.7956 35.55 42.5 35.55 36.25H42.8681C42.8681 43.125 42.9056 49.6363 42.8681 56.345C42.8838 60.4575 43.2406 64.1238 41.5744 67.1956ZM71.9331 65.1281C69.3894 73.8294 55.2069 74.1119 49.5394 68.3631C48.3419 67.01 47.5912 66.3031 46.8769 64.7412C49.8887 63.0087 49.8887 63.0088 52.8194 61.3131C54.4112 63.76 55.8831 65.1056 58.5312 65.6562C62.1238 66.095 65.7381 64.8606 64.9275 61.045C64.0944 57.9287 57.5712 57.1706 53.1319 53.8381C48.625 50.8112 47.5687 43.4562 51.2725 39.2537C52.5069 37.6994 54.6119 36.5394 56.8206 35.9819L59.1256 35.6838C63.5512 35.5944 66.3175 36.7631 68.3481 39.0306C68.9131 39.6031 69.3744 40.2206 70.2369 41.5588C67.8794 43.0613 67.8869 43.0469 64.51 45.2331C63.7888 43.6794 62.5919 42.7044 61.3269 42.2806C59.3631 41.6856 56.8869 42.3325 56.3731 44.4075C56.195 45.0469 56.2319 45.6419 56.515 46.6981C57.3106 48.5125 59.9806 49.3012 62.3756 50.4019C69.27 53.1981 71.5981 56.1962 72.1706 59.765C72.7219 62.8375 72.0375 64.8306 71.9331 65.1281Z" fill="#8C8C8C"/>
</svg>
