<svg width="40" height="40" viewBox="0 0 40 40" fill="none" xmlns="http://www.w3.org/2000/svg">
<path d="M30 27.9167C30.6904 27.9167 31.25 27.357 31.25 26.6667C31.25 25.9763 30.6904 25.4167 30 25.4167L20 25.4167C19.3097 25.4167 18.75 25.9763 18.75 26.6667C18.75 27.357 19.3097 27.9167 20 27.9167L30 27.9167Z" fill="#FAFAFA"/>
<path fill-rule="evenodd" clip-rule="evenodd" d="M30.5751 3.86769C29.1345 3.74999 27.3422 3.74999 25.056 3.75H14.9441C12.6579 3.74999 10.8655 3.74999 9.42491 3.86769C7.95801 3.98754 6.74616 4.23563 5.64928 4.79452C3.84606 5.71331 2.37999 7.17937 1.46121 8.98259C0.902318 10.0795 0.654224 11.2913 0.534374 12.7582C0.416673 14.1988 0.416679 15.9912 0.416687 18.2774V18.3893C0.416679 20.6755 0.416673 22.4679 0.534374 23.9084C0.654224 25.3753 0.902318 26.5872 1.46121 27.6841C2.38 29.4873 3.84606 30.9534 5.64928 31.8721C6.74616 32.431 7.95801 32.6791 9.42491 32.799C10.8655 32.9167 12.6578 32.9167 14.944 32.9167H18.75V35.9733C17.7094 36.046 16.6736 36.2098 15.6546 36.4646L13.0302 37.1207C12.3604 37.2881 11.9532 37.9668 12.1207 38.6365C12.2881 39.3062 12.9668 39.7134 13.6365 39.546L16.2609 38.8899C17.4884 38.583 18.7442 38.4296 20 38.4296C21.2558 38.4296 22.5116 38.583 23.7391 38.8899L26.3635 39.546C27.0333 39.7134 27.7119 39.3062 27.8794 38.6365C28.0468 37.9668 27.6396 37.2881 26.9699 37.1207L24.3455 36.4646C23.3264 36.2098 22.2906 36.046 21.25 35.9733V32.9167H25.056C27.3421 32.9167 29.1346 32.9167 30.5751 32.799C32.042 32.6791 33.2539 32.431 34.3508 31.8721C36.154 30.9534 37.62 29.4873 38.5388 27.6841C39.0977 26.5872 39.3458 25.3753 39.4657 23.9084C39.5834 22.4679 39.5834 20.6755 39.5834 18.3894V18.2774C39.5834 15.9912 39.5834 14.1988 39.4657 12.7582C39.3458 11.2913 39.0977 10.0795 38.5388 8.98259C37.62 7.17937 36.154 5.71331 34.3508 4.79452C33.2539 4.23563 32.042 3.98754 30.5751 3.86769ZM30.3715 30.3073C29.0447 30.4157 27.3542 30.4167 25 30.4167H15C12.6458 30.4167 10.9554 30.4157 9.62849 30.3073C8.31619 30.2001 7.46997 29.994 6.78426 29.6446C5.45144 28.9655 4.36783 27.8819 3.68872 26.5491C3.33934 25.8634 3.13329 25.0172 3.02607 23.7049C2.91766 22.378 2.91669 20.6875 2.91669 18.3333C2.91669 15.9792 2.91766 14.2887 3.02607 12.9618C3.13329 11.6495 3.33934 10.8033 3.68872 10.1176C4.36783 8.78475 5.45144 7.70114 6.78426 7.02204C7.46997 6.67265 8.31619 6.4666 9.62849 6.35938C10.9554 6.25097 12.6458 6.25 15 6.25H25C27.3542 6.25 29.0447 6.25097 30.3715 6.35938C31.6838 6.4666 32.5301 6.67265 33.2158 7.02204C34.5486 7.70114 35.6322 8.78475 36.3113 10.1176C36.6607 10.8033 36.8668 11.6495 36.974 12.9618C37.0824 14.2887 37.0834 15.9792 37.0834 18.3333C37.0834 20.6875 37.0824 22.378 36.974 23.7049C36.8668 25.0172 36.6607 25.8634 36.3113 26.5491C35.6322 27.8819 34.5486 28.9655 33.2158 29.6446C32.5301 29.994 31.6838 30.2001 30.3715 30.3073Z" fill="#FAFAFA"/>
<path d="M13.3334 26.6667C13.3334 27.5871 12.5872 28.3333 11.6667 28.3333C10.7462 28.3333 10 27.5871 10 26.6667C10 25.7462 10.7462 25 11.6667 25C12.5872 25 13.3334 25.7462 13.3334 26.6667Z" fill="#FAFAFA"/>
</svg>
