<svg width="40" height="40" viewBox="0 0 40 40" fill="none" xmlns="http://www.w3.org/2000/svg">
<path fill-rule="evenodd" clip-rule="evenodd" d="M13.7208 6.95932L17.5008 5.60921C18.4504 5.26915 19.2014 5.00024 20.0001 5.00024C20.7988 5.00024 21.5497 5.26916 22.4994 5.60922L26.2793 6.95932C29.8586 8.23761 32.6716 9.24226 34.5802 10.2296C35.0414 10.4681 35.4861 10.7237 35.8938 11.0036C36.4014 11.3521 36.8515 11.7384 37.2045 12.1765C37.702 12.794 38.0064 13.5145 38.0064 14.3776C38.0064 14.4441 38.0046 14.5097 38.001 14.5746C37.9505 15.4921 37.5482 16.2438 36.9384 16.8808C36.7287 17.101 36.4954 17.3064 36.2453 17.4983C35.4089 18.1405 34.2762 18.7214 32.9167 19.3031L32.9167 22.9808C32.9172 25.8246 32.9174 27.56 32.4476 29.0058C31.4997 31.9233 29.2123 34.2107 26.2948 35.1587C24.8489 35.6285 23.1135 35.6282 20.2697 35.6278H19.7303C16.8865 35.6282 15.1511 35.6285 13.7053 35.1587C10.7877 34.2107 8.50035 31.9233 7.55239 29.0058C7.0826 27.5599 7.08287 25.8246 7.08332 22.9808L7.08334 19.301C6.46979 19.0384 5.91456 18.7814 5.42003 18.5256C5.13308 18.3772 4.85249 18.2221 4.58324 18.0588V26.0442C4.58324 26.7346 4.0236 27.2942 3.33324 27.2942C2.64289 27.2942 1.99384 26.7541 1.99384 26.0637V14.3775C1.99384 12.4104 3.57521 11.1838 5.41993 10.2296C7.32856 9.24226 10.1416 8.23761 13.7208 6.95932ZM4.95776 15.2432C5.02035 15.3035 5.09104 15.3661 5.17081 15.4311C5.48067 15.6838 5.92746 15.9734 6.56857 16.305C8.30867 17.2051 10.9604 18.1552 14.6659 19.4786L18.1782 20.7331C19.37 21.1587 19.6893 21.2548 20.0001 21.2548C20.3109 21.2548 20.6302 21.1587 21.8219 20.7331L25.3343 19.4786C29.0398 18.1552 31.6915 17.2051 33.4316 16.305C35.2541 15.3623 35.5063 14.7594 35.5063 14.3775C35.5063 14.2082 35.4567 13.9954 35.2427 13.7289C35.0645 13.507 34.7723 13.2478 34.2998 12.9453C34.0599 12.7917 33.7734 12.6269 33.4317 12.4502C31.6916 11.55 29.0399 10.6 25.3344 9.27654L21.822 8.02212C20.6303 7.59649 20.311 7.50033 20.0002 7.50033C19.6894 7.50033 19.3701 7.59649 18.1783 8.02212L14.666 9.27654C10.9605 10.6 8.30877 11.55 6.56867 12.4502C4.74617 13.3929 4.49394 13.9957 4.49394 14.3776L4.49394 14.3799L4.49696 14.4489C4.51441 14.6524 4.61391 14.9122 4.95776 15.2432ZM9.58334 22.7111V20.2947C10.8171 20.7588 12.1998 21.2526 13.7209 21.7958L17.5009 23.146C18.4505 23.486 19.2015 23.7549 20.0002 23.7549C20.7989 23.7549 21.5498 23.486 22.4995 23.146L26.3321 21.777C27.8392 21.2388 29.2043 20.7513 30.4167 20.2959V22.7111C30.4167 25.9105 30.4013 27.2138 30.07 28.2333C29.3693 30.3897 27.6787 32.0804 25.5222 32.781C24.5027 33.1123 23.1994 33.1277 20 33.1277C16.8006 33.1277 15.4973 33.1123 14.4778 32.781C12.3214 32.0804 10.6307 30.3897 9.93003 28.2333C9.59877 27.2138 9.58334 25.9105 9.58334 22.7111Z" fill="#FAFAFA"/>
</svg>
